{
  "accessors": [
    {
      "bufferView": 2,
      "componentType": 5126,
      "count": 20524,
      "max": [
        3.714292526245117,
        0.007868044078350067,
        2.2191569805145264
      ],
      "min": [
        -3.7119994163513184,
        -1.0134503841400146,
        -1.4499340057373047
      ],
      "type": "VEC3"
    },
    {
      "bufferView": 2,
      "byteOffset": 246288,
      "componentType": 5126,
      "count": 20524,
      "max": [
        1.0,
        1.0,
        1.0
      ],
      "min": [
        -1.0,
        -1.0,
        -1.0
      ],
      "type": "VEC3"
    },
    {
      "bufferView": 1,
      "componentType": 5126,
      "count": 20524,
      "max": [
        0.9900000095367432,
        1.0
      ],
      "min": [
        0.027778252959251404,
        0.0
      ],
      "type": "VEC2"
    },
    {
      "bufferView": 0,
      "componentType": 5125,
      "count": 34368,
      "type": "SCALAR"
    },
    {
      "bufferView": 2,
      "byteOffset": 492576,
      "componentType": 5126,
      "count": 17337,
      "max": [
        3.0121593475341797,
        2.1629538536071777,
        0.7809094786643982
      ],
      "min": [
        -2.1619462966918945,
        -1.4438862800598145,
        -0.08932000398635864
      ],
      "type": "VEC3"
    },
    {
      "bufferView": 2,
      "byteOffset": 700620,
      "componentType": 5126,
      "count": 17337,
      "max": [
        1.0,
        1.0,
        1.0
      ],
      "min": [
        -1.0,
        -1.0,
        -1.0
      ],
      "type": "VEC3"
    },
    {
      "bufferView": 1,
      "byteOffset": 164192,
      "componentType": 5126,
      "count": 17337,
      "max": [
        0.9839826822280884,
        0.9108194708824158
      ],
      "min": [
        0.0668276697397232,
        0.01000000536441803
      ],
      "type": "VEC2"
    },
    {
      "bufferView": 0,
      "byteOffset": 137472,
      "componentType": 5125,
      "count": 28554,
      "type": "SCALAR"
    }
  ],
  "asset": {
    "extras": {
      "author": "MaxTht (https://sketchfab.com/thetiot.maxime)",
      "license": "CC-BY-4.0 (http://creativecommons.org/licenses/by/4.0/)",
      "source": "https://sketchfab.com/3d-models/pioneer-cdj-3000-7a33aaa799044e0db082f3b2b038c328",
      "title": "Pioneer Cdj 3000"
    },
    "generator": "Sketchfab-12.68.0",
    "version": "2.0"
  },
  "bufferViews": [
    {
      "buffer": 0,
      "byteLength": 251688,
      "name": "floatBufferViews",
      "target": 34963
    },
    {
      "buffer": 0,
      "byteLength": 302888,
      "byteOffset": 251688,
      "byteStride": 8,
      "name": "floatBufferViews",
      "target": 34962
    },
    {
      "buffer": 0,
      "byteLength": 908664,
      "byteOffset": 554576,
      "byteStride": 12,
      "name": "floatBufferViews",
      "target": 34962
    }
  ],
  "buffers": [
    {
      "byteLength": 1463240,
      "uri": "scene.bin"
    }
  ],
  "images": [
    {
      "uri": "textures/Textures_baseColor.png"
    }
  ],
  "materials": [
    {
      "doubleSided": true,
      "name": "Textures",
      "pbrMetallicRoughness": {
        "baseColorTexture": {
          "index": 0
        },
        "metallicFactor": 0.7434911746286534,
        "roughnessFactor": 0.7470177871865296
      }
    },
    {
      "doubleSided": true,
      "name": "Material.001",
      "pbrMetallicRoughness": {
        "baseColorTexture": {
          "index": 0
        },
        "metallicFactor": 0.317879053195435,
        "roughnessFactor": 0.7470177871865296
      }
    }
  ],
  "meshes": [
    {
      "name": "CDJ 3000 NXS_Textures_0",
      "primitives": [
        {
          "attributes": {
            "NORMAL": 1,
            "POSITION": 0,
            "TEXCOORD_0": 2
          },
          "indices": 3,
          "material": 0,
          "mode": 4
        }
      ]
    },
    {
      "name": "DJM 900 nxs 2_Material.001_0",
      "primitives": [
        {
          "attributes": {
            "NORMAL": 5,
            "POSITION": 4,
            "TEXCOORD_0": 6
          },
          "indices": 7,
          "material": 1,
          "mode": 4
        }
      ]
    }
  ],
  "nodes": [
    {
      "children": [
        1
      ],
      "matrix": [
        0.125,
        0.0,
        0.0,
        0.0,
        0.0,
        2.7755575615628914e-17,
        -0.125,
        0.0,
        0.0,
        0.125,
        2.7755575615628914e-17,
        0.0,
        0.0,
        0.0,
        0.0,
        1.0
      ],
      "name": "Sketchfab_model"
    },
    {
      "children": [
        2
      ],
      "matrix": [
        0.009999999776482582,
        0.0,
        0.0,
        0.0,
        0.0,
        0.0,
        0.009999999776482582,
        0.0,
        0.0,
        -0.009999999776482582,
        0.0,
        0.0,
        0.0,
        0.0,
        0.0,
        1.0
      ],
      "name": "c3d0d6dafc2c425ca09c96c2f928b37a.fbx"
    },
    {
      "children": [
        3,
        5
      ],
      "name": "RootNode"
    },
    {
      "children": [
        4
      ],
      "matrix": [
        153.86676025387357,
        9.967407030815178e-20,
        -0.0001002723118820671,
        0.0,
        1.5140697959694333e-11,
        -153.86676025390454,
        2.3233234419128958e-05,
        0.0,
        -0.00010027231188206597,
        -2.3233234419133894e-05,
        -153.8667602538719,
        0.0,
        0.0,
        0.0,
        0.0,
        1.0
      ],
      "name": "CDJ 3000 NXS"
    },
    {
      "mesh": 0,
      "name": "CDJ 3000 NXS_Textures_0"
    },
    {
      "children": [
        6
      ],
      "matrix": [
        153.86676025387357,
        0.0,
        -0.0001002723293746925,
        0.0,
        -0.00010027232937469118,
        -2.506807711638645e-05,
        -153.86676025387155,
        0.0,
        -1.8054308134645026e-11,
        170.04675292968525,
        -2.7704132515679586e-05,
        0.0,
        0.0,
        0.0,
        0.0,
        1.0
      ],
      "name": "DJM 900 nxs 2"
    },
    {
      "mesh": 1,
      "name": "DJM 900 nxs 2_Material.001_0"
    }
  ],
  "samplers": [
    {
      "magFilter": 9729,
      "minFilter": 9987,
      "wrapS": 10497,
      "wrapT": 10497
    }
  ],
  "scene": 0,
  "scenes": [
    {
      "name": "Sketchfab_Scene",
      "nodes": [
        0
      ]
    }
  ],
  "textures": [
    {
      "sampler": 0,
      "source": 0
    }
  ]
}
